<?xml version="1.0"?>
<svg width="1024" height="1024" xmlns="http://www.w3.org/2000/svg" xmlns:svg="http://www.w3.org/2000/svg" preserveAspectRatio="xMidYMid meet" version="1.0">

 <g class="layer">
  <title>Layer 1</title>
  <g transform="matrix(0.1, 0, 0, -0.113866, 0, 0)">
   <path d="m1615.16,-4597.23c-10,-11 -29,-49 -41,-82c-12,-34 -35,-96 -50,-137l-29,-75l190,-3c104,-1 189,-6 189,-11c0,-4 -16,-51 -35,-102c-20,-52 -51,-141 -70,-199c-51,-162 -94,-289 -119,-360c-21,-58 -95,-288 -111,-348l-6,-22l192,2l193,3l34,85c28,68 148,406 167,470c2,8 13,40 24,70c10,30 42,126 70,214c29,87 56,167 62,177c9,17 24,19 178,19l168,0l17,68c10,37 28,105 41,152c13,46 21,88 19,92c-3,4 -243,8 -534,8c-524,0 -529,0 -549,-21z" id="svg_2"/>
   <path d="m5189.16,-4588.23c-17,-47 -77,-228 -100,-305l-29,-91l-240,-4c-272,-4 -301,-11 -353,-76c-40,-51 -107,-191 -133,-282c-12,-41 -35,-109 -50,-150c-16,-41 -45,-117 -65,-168c-19,-51 -42,-123 -51,-160c-8,-37 -17,-75 -20,-84c-5,-17 22,-18 468,-18l473,0l41,108c23,59 92,260 154,447c62,187 117,348 122,359c13,24 49,135 93,285c20,68 39,130 42,137c4,12 -27,14 -171,14c-132,0 -178,-3 -181,-12zm-238,-692c-3,-8 -11,-34 -17,-58c-19,-70 -71,-219 -93,-265l-21,-43l-118,0c-65,0 -118,4 -118,8c0,5 11,41 25,80c14,39 25,77 25,84c0,7 6,25 14,39c7,15 22,51 31,80c31,95 21,89 156,89c101,0 120,-2 116,-14z" id="svg_3"/>
   <path d="m5946.16,-4678.23c-45,-116 -72,-194 -72,-208c0,-6 71,-10 181,-10c99,0 179,-4 177,-9c-1,-4 -54,-163 -117,-352c-63,-189 -124,-373 -137,-409c-43,-124 -74,-225 -74,-243c0,-16 15,-17 192,-15l191,3l19,55c10,30 22,64 28,75c8,18 59,168 162,480c16,50 54,162 83,250l53,160l162,5l162,5l18,55c49,147 78,246 73,253c-2,4 -242,7 -533,7l-528,0l-40,-102z" id="svg_4"/>
   <path d="m7774.16,-4613.23c-7,-21 -20,-51 -29,-68c-9,-16 -17,-41 -18,-55c0,-14 -9,-56 -18,-95c-26,-104 -25,-117 8,-126c15,-4 71,-9 124,-10l97,-3l13,58c7,32 29,105 48,161c19,57 36,118 37,137l3,33l-127,3l-126,3l-12,-38z" id="svg_5"/>
   <path d="m9024.16,-4617.23c-6,-22 -24,-80 -40,-127c-15,-48 -44,-143 -64,-212c-35,-119 -60,-199 -177,-565c-80,-252 -120,-398 -110,-404c5,-3 84,-6 176,-6l167,1l20,54c34,94 46,132 73,220l25,86l56,12c58,12 74,10 74,-11c1,-21 127,-329 142,-346c12,-14 39,-18 166,-20c179,-3 172,-8 152,113c-17,107 -48,201 -115,347c-40,88 -53,125 -46,137c14,25 51,56 99,82c23,13 42,27 42,31c0,4 35,35 78,69c42,34 85,68 94,75c9,8 28,21 42,30c15,10 26,27 26,39c0,22 -2,22 -127,19c-197,-5 -240,-10 -281,-31c-44,-23 -233,-162 -279,-205c-18,-17 -35,-28 -38,-25c-3,2 10,49 29,104c33,98 110,345 148,477c11,38 17,75 14,83c-4,11 -37,14 -170,14l-165,0l-11,-41z" id="svg_6"/>
   <path d="m2724.16,-4993.23c-59,-10 -91,-26 -105,-52c-22,-44 -130,-318 -165,-421c-18,-52 -58,-169 -90,-260c-32,-91 -61,-175 -65,-187l-6,-23l174,0l175,0l20,48c22,52 140,390 173,499c47,151 63,166 202,186c59,8 110,17 113,20c10,9 52,186 46,192c-6,6 -434,4 -472,-2z" id="svg_7"/>
   <path d="m3549.16,-4996.23c-95,-8 -138,-27 -206,-88c-75,-67 -85,-86 -169,-317c-91,-250 -130,-376 -130,-425c0,-48 35,-89 85,-100c46,-11 576,-13 712,-4l90,7l25,56c14,31 40,99 57,151c17,52 49,151 71,220c22,69 44,132 49,141c15,26 61,205 61,237c0,44 -8,59 -45,82c-67,41 -363,61 -600,40zm265,-269c0,-5 -4,-11 -9,-13c-4,-1 -25,-57 -46,-123c-21,-66 -49,-148 -63,-182l-24,-63l-115,0l-115,0l7,41c9,51 79,268 99,308c17,33 0,30 219,39c26,1 47,-2 47,-7z" id="svg_8"/>
   <path d="m7175.16,-4997.23c-71,-5 -108,-13 -121,-24c-27,-24 -79,-138 -128,-280c-54,-159 -101,-292 -142,-405c-17,-47 -37,-105 -44,-130c-7,-25 -16,-55 -20,-67l-7,-23l173,0l173,0l18,48c10,26 32,88 48,137c17,50 37,104 45,122c8,18 30,83 49,145c19,62 48,141 65,176c16,34 30,67 30,72c0,6 37,10 89,10c59,0 92,4 98,13c11,14 59,141 68,178c6,26 5,26 -62,32c-83,8 -193,7 -332,-4z" id="svg_9"/>
   <path d="m8165.16,-4997.23c-75,-13 -129,-39 -177,-85c-59,-57 -75,-85 -128,-224c-26,-69 -52,-134 -57,-145c-5,-11 -25,-65 -44,-120c-20,-55 -49,-136 -66,-180c-33,-92 -35,-105 -14,-145l16,-30l363,0l364,0l20,53c21,53 72,219 72,232c0,4 -94,4 -210,0c-124,-4 -210,-4 -210,2c0,5 20,65 44,133c48,133 91,230 110,243c6,4 92,7 190,5c151,-3 180,-1 187,12c10,21 59,202 59,222c0,10 -12,18 -32,22c-61,11 -432,15 -487,5z" id="svg_10"/>
   <path d="m7619.16,-5217.23c-78,-43 -94,-61 -125,-141c-16,-44 -30,-84 -30,-89c0,-6 44,-9 107,-7l108,3l42,105c23,57 40,107 37,109c-6,6 -94,30 -109,30c-5,0 -19,-5 -30,-10z" id="svg_11"/>
   <path d="m7061.16,-5994.23c-4,-5 -24,-13 -44,-16c-71,-13 -114,-27 -108,-35c2,-5 47,-19 98,-31c104,-24 187,-66 214,-107c14,-21 18,-48 18,-123l0,-95l-59,-103c-73,-130 -126,-210 -160,-241c-62,-58 -15,-71 119,-35c55,14 120,28 145,31l45,4l-85,-46c-103,-56 -160,-78 -360,-143c-230,-75 -237,-78 -469,-158c-117,-41 -215,-73 -217,-71c-2,2 35,24 83,48c270,136 472,365 473,535c1,183 -183,308 -563,383c-262,52 -338,62 -497,66c-85,3 -222,9 -305,15c-173,12 -1279,33 -1346,25c-24,-3 -69,-7 -99,-9c-83,-6 -250,-53 -294,-84c-21,-15 -46,-31 -55,-37c-54,-34 -90,-70 -121,-122c-19,-32 -63,-92 -98,-133c-156,-184 -226,-330 -241,-500c-5,-68 -3,-99 11,-154c25,-91 35,-109 107,-188c49,-53 81,-77 164,-119c56,-30 127,-63 157,-75c55,-21 232,-54 390,-74c159,-19 529,-9 855,24c83,9 209,20 280,26c72,5 157,14 190,19c33,6 134,22 225,36c279,45 439,75 585,110c77,18 156,36 175,40c55,10 507,145 585,175c28,10 94,35 147,54c514,189 820,391 924,611c47,101 53,156 24,255c-12,41 -27,104 -34,140c-11,57 -13,61 -19,35c-3,-16 -9,-75 -13,-130c-4,-55 -11,-111 -16,-124c-13,-37 -123,-168 -180,-217c-29,-25 -103,-78 -164,-119l-111,-75l-59,13l-58,13l46,50c98,105 208,315 208,396c0,40 -5,52 -46,97c-48,53 -159,115 -263,147c-63,19 -177,29 -184,16zm-3157,-231c0,-5 -7,-14 -15,-21c-8,-7 -15,-17 -15,-22c0,-5 -11,-24 -25,-42c-14,-18 -25,-36 -25,-39c0,-3 -18,-35 -40,-69c-22,-35 -40,-69 -40,-75c0,-23 64,-14 111,15c56,36 129,118 170,190c18,31 33,58 34,60c8,11 981,-30 1255,-53c91,-8 216,-17 278,-21c61,-3 112,-8 112,-9c0,-11 -62,-121 -78,-139c-27,-30 -62,-108 -62,-138c0,-38 44,-70 89,-66c34,3 40,9 104,113c37,61 77,129 88,153c11,24 27,46 35,49c18,7 243,-45 263,-61c8,-6 15,-9 15,-7c2,7 78,-20 128,-45c52,-26 68,-48 68,-92c0,-49 -72,-128 -155,-170c-89,-46 -448,-177 -522,-192c-27,-5 -93,-20 -148,-34c-228,-58 -348,-81 -645,-127c-358,-55 -876,-83 -1030,-55c-14,2 -59,10 -100,16c-133,21 -246,71 -329,144c-57,50 -77,169 -46,272c8,27 45,99 81,159c37,61 75,126 86,146c17,33 118,109 145,109c5,0 15,6 21,13c32,31 192,63 192,38z" id="svg_12"/>
  </g>
 </g>
</svg>